<svg width="25" height="23" viewBox="0 0 25 23" fill="none" xmlns="http://www.w3.org/2000/svg">
<path fill-rule="evenodd" clip-rule="evenodd" d="M20.7771 17.89C20.7161 17.8445 20.6532 17.8016 20.5881 17.7616C20.5646 17.7472 20.5408 17.7331 20.5168 17.7194C20.4866 17.7022 20.4561 17.6856 20.4251 17.6696C20.3809 17.6468 20.3359 17.6252 20.2902 17.605C20.2113 17.57 20.1303 17.539 20.0473 17.5122C19.9589 17.4835 19.8683 17.4596 19.7758 17.4408C19.6122 17.4075 19.4428 17.39 19.2693 17.39C18.7035 17.39 18.1813 17.5761 17.7613 17.89H20.7771ZM8.953 17.4427C8.93875 17.4457 8.92454 17.4488 8.91038 17.452C8.82291 17.4717 8.7372 17.496 8.65348 17.5246C8.59069 17.546 8.52903 17.5698 8.46862 17.5959C8.40338 17.6241 8.33959 17.655 8.27736 17.6884C8.26072 17.6973 8.24418 17.7064 8.22777 17.7157C8.20154 17.7306 8.17562 17.7459 8.15 17.7617C8.08499 17.8016 8.02199 17.8445 7.96106 17.89C7.35083 18.3461 6.95588 19.0722 6.95588 19.89C6.95588 21.2707 8.08096 22.39 9.46882 22.39C10.8567 22.39 11.9818 21.2707 11.9818 19.89C11.9818 19.0722 11.5871 18.3461 10.9768 17.89H7.96106C8.02199 17.8445 8.08499 17.8016 8.15 17.7617C8.17562 17.7459 8.20154 17.7306 8.22777 17.7157C8.24418 17.7064 8.26072 17.6973 8.27736 17.6884C8.33959 17.655 8.40338 17.6241 8.46862 17.5959C8.52903 17.5698 8.59069 17.546 8.65348 17.5246C8.75076 17.4914 8.85074 17.464 8.953 17.4427ZM9.46882 19.39C9.19125 19.39 8.96624 19.6139 8.96624 19.89C8.96624 20.1662 9.19125 20.39 9.46882 20.39C9.7464 20.39 9.97141 20.1662 9.97141 19.89C9.97141 19.6139 9.7464 19.39 9.46882 19.39Z" fill="white" fill-opacity="0.74"/>
<path fill-rule="evenodd" clip-rule="evenodd" d="M20.5881 17.7616C20.5646 17.7472 20.5408 17.7331 20.5168 17.7194C20.4866 17.7022 20.4561 17.6856 20.4251 17.6696C20.4807 17.6983 20.5351 17.729 20.5881 17.7616Z" fill="white" fill-opacity="0.74"/>
<path fill-rule="evenodd" clip-rule="evenodd" d="M1.92998 0.140015C1.37484 0.140015 0.924805 0.58773 0.924805 1.14001C0.924805 1.6923 1.37484 2.14001 1.92998 2.14001H3.39769L5.09769 9.24326L6.22774 14.1149C6.24865 14.205 6.28144 14.29 6.32423 14.3682L6.98321 17.1216C7.09102 17.5721 7.4956 17.89 7.96106 17.89C8.02199 17.8445 8.08499 17.8016 8.15 17.7617C8.17562 17.7459 8.20154 17.7306 8.22777 17.7157C8.24418 17.7064 8.26072 17.6973 8.27736 17.6884C8.33959 17.655 8.40338 17.6241 8.46862 17.5959C8.52903 17.5698 8.59069 17.546 8.65348 17.5246C8.7372 17.496 8.82291 17.4717 8.91038 17.452C8.92454 17.4488 8.93875 17.4457 8.953 17.4427C9.11949 17.4082 9.29202 17.39 9.46882 17.39C10.0347 17.39 10.5568 17.5761 10.9768 17.89H17.7613C18.1813 17.5761 18.7035 17.39 19.2693 17.39C19.4428 17.39 19.6122 17.4075 19.7758 17.4408C19.8683 17.4596 19.9589 17.4835 20.0473 17.5122C20.1303 17.539 20.2113 17.57 20.2902 17.605C20.3359 17.6252 20.3809 17.6468 20.4251 17.6696C20.4561 17.6856 20.4866 17.7022 20.5168 17.7194C20.5408 17.7331 20.5646 17.7472 20.5881 17.7616C20.6532 17.8016 20.7161 17.8445 20.7771 17.89C21.3322 17.89 21.7823 17.4423 21.7823 16.89C21.7823 16.3377 21.3322 15.89 20.7771 15.89H8.75501L8.51568 14.89H20.7771C21.2452 14.89 21.6513 14.5686 21.7565 14.1149L24.0182 4.36487C24.0871 4.06793 24.0161 3.75595 23.8254 3.51746C23.6347 3.27898 23.3451 3.14001 23.0387 3.14001H5.70357L5.16948 0.908394C5.06167 0.457926 4.65709 0.140015 4.19164 0.140015H1.92998ZM19.9775 12.89H8.03702L7.055 8.78677L6.20908 5.14001H21.7752L19.9775 12.89ZM10.9768 17.89C10.5568 17.5761 10.0347 17.39 9.46882 17.39C9.29202 17.39 9.11949 17.4082 8.953 17.4427C8.93875 17.4457 8.92454 17.4488 8.91038 17.452C8.82291 17.4717 8.7372 17.496 8.65348 17.5246C8.59069 17.546 8.52903 17.5698 8.46862 17.5959C8.40338 17.6241 8.33959 17.655 8.27736 17.6884C8.26072 17.6973 8.24418 17.7064 8.22777 17.7157C8.20154 17.7306 8.17562 17.7459 8.15 17.7617C8.08499 17.8016 8.02199 17.8445 7.96106 17.89H10.9768Z" fill="white" fill-opacity="0.74"/>
<path fill-rule="evenodd" clip-rule="evenodd" d="M20.7771 17.89C20.7161 17.8445 20.6532 17.8016 20.5881 17.7616C20.5646 17.7472 20.5408 17.7331 20.5168 17.7194C20.4866 17.7022 20.4561 17.6856 20.4251 17.6696C20.3809 17.6468 20.3359 17.6252 20.2902 17.605C20.2113 17.57 20.1303 17.539 20.0473 17.5122C19.9589 17.4835 19.8683 17.4596 19.7758 17.4408C19.6122 17.4075 19.4428 17.39 19.2693 17.39C18.7035 17.39 18.1813 17.5761 17.7613 17.89H20.7771Z" fill="white" fill-opacity="0.74"/>
<path fill-rule="evenodd" clip-rule="evenodd" d="M20.7771 17.89C20.777 17.89 20.7771 17.89 20.7771 17.89H17.7613C17.1511 18.3461 16.7564 19.0722 16.7564 19.89C16.7564 21.2707 17.8815 22.39 19.2693 22.39C20.6572 22.39 21.7823 21.2707 21.7823 19.89C21.7823 19.0722 21.3874 18.3461 20.7771 17.89ZM18.7667 19.89C18.7667 19.6139 18.9917 19.39 19.2693 19.39C19.5469 19.39 19.7719 19.6139 19.7719 19.89C19.7719 20.1662 19.5469 20.39 19.2693 20.39C18.9917 20.39 18.7667 20.1662 18.7667 19.89Z" fill="white" fill-opacity="0.74"/>
</svg>
