<svg id="Layer_1" data-name="Layer 1" xmlns="http://www.w3.org/2000/svg" viewBox="0 0 23.84 22.25"><defs><style>.cls-1{fill:#fff;}.cls-1,.cls-2{fill-opacity:0.74;fill-rule:evenodd;}.cls-2{fill:#9fddf9;opacity:0.74;}.cls-3{fill:#6200ee;}</style></defs><path class="cls-1" d="M20.78,17.89l-.19-.13-.07,0-.09,0-.14-.07-.24-.09-.27-.07a2.94,2.94,0,0,0-.51-.05,2.53,2.53,0,0,0-1.51.5ZM9,17.44h0l-.26.07-.18.08a1.11,1.11,0,0,0-.19.09l0,0-.08,0L8,17.89a2.51,2.51,0,1,0,3,0H8l.19-.13.08,0,0,0a1.11,1.11,0,0,1,.19-.09l.18-.08Zm.52,1.95a.5.5,0,1,0,.5.5A.5.5,0,0,0,9.47,19.39Z" transform="translate(-0.92 -0.14)"/><path class="cls-2" d="M20.59,17.76l-.07,0-.09,0Z" transform="translate(-0.92 -0.14)"/><path class="cls-1" d="M1.93.14a1,1,0,1,0,0,2H3.4l1.7,7.1,1.13,4.87a1.14,1.14,0,0,0,.09.26L7,17.12a1,1,0,0,0,1,.77l.19-.13.08,0,0,0a1.11,1.11,0,0,1,.19-.09l.18-.08.26-.07H9a3,3,0,0,1,.52-.05,2.56,2.56,0,0,1,1.51.5h6.78a2.53,2.53,0,0,1,1.51-.5,2.94,2.94,0,0,1,.51.05l.27.07.24.09.14.07.09,0,.07,0,.19.13a1,1,0,0,0,0-2h-12l-.24-1H20.78a1,1,0,0,0,1-.78L24,4.36a1,1,0,0,0-.19-.84A1,1,0,0,0,23,3.14H5.7L5.17.91a1,1,0,0,0-1-.77ZM20,12.89H8l-1-4.1L6.21,5.14H21.78Zm-9,5a2.56,2.56,0,0,0-1.51-.5,3,3,0,0,0-.52.05h0l-.26.07-.18.08a1.11,1.11,0,0,0-.19.09l0,0-.08,0L8,17.89Z" transform="translate(-0.92 -0.14)"/><path class="cls-1" d="M20.78,17.89l-.19-.13-.07,0-.09,0-.14-.07-.24-.09-.27-.07a2.94,2.94,0,0,0-.51-.05,2.53,2.53,0,0,0-1.51.5Z" transform="translate(-0.92 -0.14)"/><path class="cls-1" d="M20.78,17.89h-3a2.51,2.51,0,1,0,3,0Zm-2,2a.5.5,0,1,1,.5.5A.5.5,0,0,1,18.77,19.89Z" transform="translate(-0.92 -0.14)"/><circle class="cls-3" cx="19.85" cy="4.46" r="3.99"/></svg>