<svg width="25" height="25" viewBox="0 0 25 25" fill="none" xmlns="http://www.w3.org/2000/svg">
<path d="M21.8651 20.6674L15.7784 14.5806C16.7229 13.3595 17.2339 11.8666 17.2339 10.2963C17.2339 8.41658 16.5003 6.65408 15.1737 5.32517C13.8472 3.99626 12.08 3.26501 10.2026 3.26501C8.32529 3.26501 6.55811 3.99861 5.23154 5.32517C3.90264 6.65173 3.17139 8.41658 3.17139 10.2963C3.17139 12.1736 3.90498 13.9408 5.23154 15.2674C6.55811 16.5963 8.32295 17.3275 10.2026 17.3275C11.7729 17.3275 13.2636 16.8166 14.4847 15.8744L20.5714 21.9588C20.5892 21.9766 20.6104 21.9908 20.6338 22.0005C20.6571 22.0101 20.6821 22.0151 20.7073 22.0151C20.7326 22.0151 20.7576 22.0101 20.7809 22.0005C20.8042 21.9908 20.8254 21.9766 20.8433 21.9588L21.8651 20.9392C21.883 20.9214 21.8972 20.9002 21.9068 20.8769C21.9165 20.8535 21.9215 20.8285 21.9215 20.8033C21.9215 20.778 21.9165 20.753 21.9068 20.7297C21.8972 20.7064 21.883 20.6852 21.8651 20.6674ZM13.9151 14.0088C12.9214 15.0002 11.6042 15.5463 10.2026 15.5463C8.80107 15.5463 7.48389 15.0002 6.49014 14.0088C5.49873 13.015 4.95264 11.6978 4.95264 10.2963C4.95264 8.8947 5.49873 7.57517 6.49014 6.58376C7.48389 5.59236 8.80107 5.04626 10.2026 5.04626C11.6042 5.04626 12.9237 5.59001 13.9151 6.58376C14.9065 7.57751 15.4526 8.8947 15.4526 10.2963C15.4526 11.6978 14.9065 13.0174 13.9151 14.0088Z" fill="white"/>
</svg>
