<svg width="21" height="20" viewBox="0 0 21 20" fill="none" xmlns="http://www.w3.org/2000/svg">
<path d="M10.666 0C9.3528 0 8.05244 0.258658 6.83918 0.761205C5.62593 1.26375 4.52353 2.00035 3.59495 2.92893C1.71958 4.8043 0.666016 7.34784 0.666016 10C0.666016 12.6522 1.71958 15.1957 3.59495 17.0711C4.52353 17.9997 5.62593 18.7362 6.83918 19.2388C8.05244 19.7413 9.3528 20 10.666 20C13.3182 20 15.8617 18.9464 17.7371 17.0711C19.6124 15.1957 20.666 12.6522 20.666 10C20.666 8.68678 20.4074 7.38642 19.9048 6.17317C19.4023 4.95991 18.6657 3.85752 17.7371 2.92893C16.8085 2.00035 15.7061 1.26375 14.4929 0.761205C13.2796 0.258658 11.9792 0 10.666 0ZM5.73602 16.28C6.16602 15.38 8.78602 14.5 10.666 14.5C12.546 14.5 15.166 15.38 15.596 16.28C14.1954 17.396 12.4569 18.0026 10.666 18C8.80602 18 7.09602 17.36 5.73602 16.28ZM17.026 14.83C15.596 13.09 12.126 12.5 10.666 12.5C9.20602 12.5 5.73602 13.09 4.30602 14.83C3.2422 13.4446 2.66568 11.7467 2.66602 10C2.66602 5.59 6.25602 2 10.666 2C15.076 2 18.666 5.59 18.666 10C18.666 11.82 18.046 13.5 17.026 14.83ZM10.666 4C8.72602 4 7.16602 5.56 7.16602 7.5C7.16602 9.44 8.72602 11 10.666 11C12.606 11 14.166 9.44 14.166 7.5C14.166 5.56 12.606 4 10.666 4ZM10.666 9C10.2682 9 9.88666 8.84196 9.60536 8.56066C9.32405 8.27936 9.16602 7.89782 9.16602 7.5C9.16602 7.10218 9.32405 6.72064 9.60536 6.43934C9.88666 6.15804 10.2682 6 10.666 6C11.0638 6 11.4454 6.15804 11.7267 6.43934C12.008 6.72064 12.166 7.10218 12.166 7.5C12.166 7.89782 12.008 8.27936 11.7267 8.56066C11.4454 8.84196 11.0638 9 10.666 9Z" fill="white" fill-opacity="0.74"/>
</svg>
