<svg width="12" height="17" viewBox="0 0 12 17" fill="none" xmlns="http://www.w3.org/2000/svg">
<path fill-rule="evenodd" clip-rule="evenodd" d="M1.5 1.5V15.5H10.5V1.5H1.5ZM1 0C0.447715 0 0 0.447715 0 1V16C0 16.5523 0.447715 17 1 17H11C11.5523 17 12 16.5523 12 16V1C12 0.447715 11.5523 0 11 0H1Z" fill="#c2c2c3"/>
<path fill-rule="evenodd" clip-rule="evenodd" d="M9 3.5C9 3.77614 8.77614 4 8.5 4H3.5C3.22386 4 3 3.77614 3 3.5C3 3.22386 3.22386 3 3.5 3H8.5C8.77614 3 9 3.22386 9 3.5Z" fill="#c2c2c3"/>
<path fill-rule="evenodd" clip-rule="evenodd" d="M9 6.5C9 6.77614 8.77614 7 8.5 7H3.5C3.22386 7 3 6.77614 3 6.5C3 6.22386 3.22386 6 3.5 6H8.5C8.77614 6 9 6.22386 9 6.5Z" fill="#c2c2c3"/>
<path fill-rule="evenodd" clip-rule="evenodd" d="M9 9.5C9 9.77614 8.77614 10 8.5 10H3.5C3.22386 10 3 9.77614 3 9.5C3 9.22386 3.22386 9 3.5 9H8.5C8.77614 9 9 9.22386 9 9.5Z" fill="#c2c2c3"/>
</svg>
